<mxfile host="app.diagrams.net" modified="2023-03-20T08:21:43.521Z" agent="5.0 (Windows NT 10.0; Win64; x64) AppleWebKit/537.36 (KHTML, like Gecko) Chrome/110.0.0.0 Safari/537.36" etag="U-WA5u5HvCVwt8fFcCHO" version="21.0.8" type="github">
  <diagram id="LJ3lU3-_otBDvy5FKb0J" name="Page-1">
    <mxGraphModel dx="1793" dy="1005" grid="1" gridSize="10" guides="1" tooltips="1" connect="1" arrows="1" fold="1" page="1" pageScale="1" pageWidth="1169" pageHeight="827" math="0" shadow="0">
      <root>
        <mxCell id="0" />
        <mxCell id="1" parent="0" />
        <mxCell id="9XHFxHY52LzIyJSaBSOC-2" value="INDITEX - TO DO" style="swimlane;whiteSpace=wrap;html=1;" vertex="1" parent="1">
          <mxGeometry x="70" y="80" width="350" height="410" as="geometry">
            <mxRectangle x="150" y="170" width="140" height="30" as="alternateBounds" />
          </mxGeometry>
        </mxCell>
        <mxCell id="9XHFxHY52LzIyJSaBSOC-3" value="EASY DOCS" style="rounded=1;whiteSpace=wrap;html=1;" vertex="1" parent="9XHFxHY52LzIyJSaBSOC-2">
          <mxGeometry x="40" y="70" width="80" height="30" as="geometry" />
        </mxCell>
      </root>
    </mxGraphModel>
  </diagram>
</mxfile>
